<?xml version="1.0" encoding="UTF-8" standalone="no"?>
<!-- Created with Inkscape (http://www.inkscape.org/) -->

<svg
   xmlns:osb="http://www.openswatchbook.org/uri/2009/osb"
   xmlns:dc="http://purl.org/dc/elements/1.1/"
   xmlns:cc="http://creativecommons.org/ns#"
   xmlns:rdf="http://www.w3.org/1999/02/22-rdf-syntax-ns#"
   xmlns:svg="http://www.w3.org/2000/svg"
   xmlns="http://www.w3.org/2000/svg"
   xmlns:sodipodi="http://sodipodi.sourceforge.net/DTD/sodipodi-0.dtd"
   xmlns:inkscape="http://www.inkscape.org/namespaces/inkscape"
   width="50mm"
   height="10mm"
   viewBox="0 0 50 10"
   version="1.1"
   id="svg8"
   inkscape:version="0.92.2 (5c3e80d, 2017-08-06)"
   sodipodi:docname="MainMenuButtonTemplate.svg">
  <defs
     id="defs2">
    <linearGradient
       id="linearGradient2387"
       osb:paint="solid">
      <stop
         style="stop-color:#ffff25;stop-opacity:1;"
         offset="0"
         id="stop2385" />
    </linearGradient>
    <meshgradient
       inkscape:collect="always"
       id="meshgradient2391"
       gradientUnits="userSpaceOnUse"
       x="8.2836723"
       y="4.8086715">
      <meshrow
         id="meshrow2393">
        <meshpatch
           id="meshpatch2395">
          <stop
             path="c 11.7613,0  23.5226,0  35.284,0"
             style="stop-color:#ffffff;stop-opacity:1"
             id="stop2397" />
          <stop
             path="c 0,9.54306  0,19.0861  0,28.6292"
             style="stop-color:#ffff25;stop-opacity:1"
             id="stop2399" />
          <stop
             path="c -11.7613,0  -23.5226,0  -35.284,0"
             style="stop-color:#ffffff;stop-opacity:1"
             id="stop2401" />
          <stop
             path="c 0,-9.54306  0,-19.0861  0,-28.6292"
             style="stop-color:#ffff25;stop-opacity:1"
             id="stop2403" />
        </meshpatch>
      </meshrow>
    </meshgradient>
  </defs>
  <sodipodi:namedview
     id="base"
     pagecolor="#ffffff"
     bordercolor="#666666"
     borderopacity="1.0"
     inkscape:pageopacity="0.0"
     inkscape:pageshadow="2"
     inkscape:zoom="3.959798"
     inkscape:cx="81.767439"
     inkscape:cy="-1.9229155"
     inkscape:document-units="mm"
     inkscape:current-layer="layer1"
     showgrid="false"
     inkscape:snap-bbox="true"
     inkscape:snap-global="true"
     inkscape:window-width="1920"
     inkscape:window-height="1017"
     inkscape:window-x="1912"
     inkscape:window-y="-8"
     inkscape:window-maximized="1" />
  <metadata
     id="metadata5">
    <rdf:RDF>
      <cc:Work
         rdf:about="">
        <dc:format>image/svg+xml</dc:format>
        <dc:type
           rdf:resource="http://purl.org/dc/dcmitype/StillImage" />
        <dc:title></dc:title>
      </cc:Work>
    </rdf:RDF>
  </metadata>
  <g
     inkscape:label="Layer 1"
     inkscape:groupmode="layer"
     id="layer1"
     transform="translate(0,-287)">
    <path
       style="opacity:1;fill:#ffd5d5;fill-opacity:1;stroke:#000500;stroke-width:0.75761443;stroke-linecap:butt;stroke-linejoin:bevel;stroke-miterlimit:4;stroke-dasharray:none;stroke-opacity:1;paint-order:stroke fill markers"
       d="m 40.393274,37.098754 c 0.0463,-0.13507 4.232118,-8.385766 9.301821,-18.334882 l 9.217642,-18.08930272 25.885159,0.1520004 c 14.236838,0.0836003 43.357644,0.15206137 64.712894,0.15213584 l 38.82774,1.3544e-4 V 19.161587 37.344333 h -74.01472 c -47.834305,0 -73.984939,-0.08687 -73.930536,-0.245579 z"
       id="path877"
       inkscape:connector-curvature="0"
       transform="matrix(0.26458333,0,0,0.26458333,0,287)" />
    <path
       style="opacity:1;fill:#b75bb2;fill-opacity:1;stroke:#000500;stroke-width:0.2;stroke-linecap:butt;stroke-linejoin:bevel;stroke-miterlimit:4;stroke-dasharray:none;stroke-opacity:1;paint-order:stroke fill markers"
       d="m 0.92091301,296.77064 c 0,-0.0238 0.70329059,-1.41442 1.56286799,-3.09031 0.8595775,-1.67589 1.9645698,-3.83561 2.4555389,-4.79938 l 0.8926708,-1.7523 3.6303809,-0.002 3.6303804,-0.002 -0.664737,1.28623 c -0.365605,0.70743 -1.483312,2.88735 -2.4837924,4.84426 l -1.8190549,3.55803 H 4.5230403 c -1.98117,0 -3.60212729,-0.0195 -3.60212729,-0.0432 z"
       id="path879"
       inkscape:connector-curvature="0" />
    <path
       style="opacity:1;fill:#b75bb2;fill-opacity:1;stroke:#000500;stroke-width:0.75761443;stroke-linecap:butt;stroke-linejoin:bevel;stroke-miterlimit:4;stroke-dasharray:none;stroke-opacity:1;paint-order:stroke fill markers"
       d="M 69.561786,37.154937 C 53.612093,37.119033 40.600065,37.00155 40.646168,36.893863 40.875803,36.357477 55.100166,8.37922 56.96789,4.7902584 l 2.156328,-4.14353366 7.574674,0.1660581 c 4.166071,0.091332 33.239295,0.16605812 64.607158,0.16605812 h 57.03248 V 19.161587 37.344333 l -44.88865,-0.06206 C 118.76112,37.248141 85.511476,37.19084 69.561786,37.154937 Z"
       id="path881"
       inkscape:connector-curvature="0"
       transform="matrix(0.26458333,0,0,0.26458333,0,287)" />
    <path
       style="opacity:1;fill:#b75bb2;fill-opacity:1;stroke:#000500;stroke-width:0.75761443;stroke-linecap:butt;stroke-linejoin:bevel;stroke-miterlimit:4;stroke-dasharray:none;stroke-opacity:1;paint-order:stroke fill markers"
       d=""
       id="path883"
       inkscape:connector-curvature="0"
       transform="matrix(0.26458333,0,0,0.26458333,0,287)" />
    <path
       style="fill:none;stroke:#000000;stroke-width:0.21485257px;stroke-linecap:butt;stroke-linejoin:miter;stroke-opacity:1"
       d="m 5.8988081,288.13091 5.8960369,-0.003 -4.0338829,7.86748 -5.850152,-0.0351 3.987998,-7.82915"
       id="path923"
       inkscape:connector-curvature="0" />
    <path
       style="opacity:1;fill:url(#meshgradient2391);fill-opacity:1;stroke:#000500;stroke-width:0.19275591;stroke-linecap:butt;stroke-linejoin:bevel;stroke-miterlimit:4;stroke-dasharray:0.19275591, 0.19275591000000000;stroke-opacity:1;paint-order:stroke fill markers;stroke-dashoffset:0"
       d="M 15.160505,33.370302 C 11.37559,33.329219 8.2810158,33.2122 8.2836738,33.110261 c 0.00266,-0.10194 3.2140742,-6.492486 7.1364812,-14.201212 l 7.131648,-14.0158669 10.56928,-0.065928 c 8.424023,-0.052546 10.543685,-0.00129 10.443179,0.2525382 -0.06935,0.1751563 -3.366737,6.6256057 -7.32752,14.3343327 l -7.201419,14.015867 -3.496577,0.0075 c -1.923117,0.0041 -6.593325,-0.02611 -10.378241,-0.06719 z"
       id="path925"
       inkscape:connector-curvature="0"
       transform="matrix(0.26458333,0,0,0.26458333,0,287)" />
  </g>
</svg>
